<?xml version="1.0" encoding="UTF-8"?>
<svg id="Ebene_2" data-name="Ebene 2" xmlns="http://www.w3.org/2000/svg" viewBox="0 0 373.92 345.45">
  <defs>
    <style>
      .cls-1 {
        fill: none;
        stroke: #268692;
        stroke-linecap: round;
        stroke-linejoin: round;
        stroke-width: 11.32px;
      }

      .cls-2 {
        fill: #268692;
        stroke-width: 0px;
      }
    </style>
  </defs>
  <g id="Layer_1" data-name="Layer 1">
    <g>
      <g>
        <path class="cls-1" d="M360.82,175.22h0c-5.19,5.19-13.6,5.19-18.78,0l-74.18-74.18,18.78-18.78,74.18,74.18c5.19,5.19,5.19,13.6,0,18.78Z"/>
        <line class="cls-1" x1="277.24" y1="91.64" x2="230.11" y2="44.51"/>
        <polygon class="cls-1" points="209.5 10.16 202.63 17.03 195.76 23.9 212.6 44.08 230.11 44.51 229.69 27 209.5 10.16"/>
      </g>
      <g>
        <path class="cls-1" d="M245.19,110.27l-18.08,17.76c-8.31-1.98-17.41.2-23.89,6.68-9.94,9.94-9.94,26.05,0,35.99,9.94,9.94,26.05,9.94,35.99,0,6.48-6.48,8.66-15.57,6.68-23.88l16.93-16.61"/>
        <path class="cls-1" d="M315.14,77.65l11.78-11.86c6.59,0,11.75.02,19.51.02l21.83-21.83v-17.12l-3.51-3.51-19.52,19.52-14.17-14.17,19.52-19.52-3.51-3.51h-17.12l-21.83,21.83c0,7.76.02,12.93.02,19.52l-13.41,13.5"/>
        <path class="cls-1" d="M226.37,157.87c-2.85,2.85-7.47,2.85-10.32,0-2.85-2.85-2.85-7.47,0-10.32,2.85-2.85,7.47-2.85,10.32,0,2.85,2.85,2.85,7.47,0,10.32Z"/>
      </g>
    </g>
    <g>
      <g>
        <g>
          <path class="cls-1" d="M163.6,200.19l-95.85-52.46c-14.09-6.82-29.54-10.36-45.19-10.36H5.66v174.21h116.09"/>
          <path class="cls-1" d="M257.88,311.58h24.05c9.59,0,17.36-7.77,17.36-17.36v-43.44c0-4.49-1.39-8.85-3.97-12.51-5.32-7.55-17.05-19.48-41.3-27.82l-20.26,10.16-17.33-16.62-20.14,10.89-32.69-14.68H5.66"/>
          <circle class="cls-1" cx="190.26" cy="292.25" r="47.54" transform="translate(-94.06 90.34) rotate(-21.55)"/>
          <path class="cls-1" d="M299.29,260.26h-32.67c-7.62,0-14.13-5.48-15.42-12.99h0c-1.64-9.56,5.72-18.3,15.42-18.3h20.39"/>
          <circle class="cls-2" cx="190.26" cy="292.25" r="16.91" transform="translate(-138.12 409.63) rotate(-76.6)"/>
        </g>
        <line class="cls-1" x1="110.77" y1="283.43" x2="5.66" y2="283.43"/>
      </g>
      <polyline class="cls-1" points="23.65 200.19 36.87 231.71 72.08 244 85.86 263.56"/>
      <polyline class="cls-1" points="72.08 244 91.45 231.87 121.99 238.79"/>
    </g>
  </g>
</svg>