<?xml version="1.0" encoding="UTF-8"?>
<svg id="Ebene_2" data-name="Ebene 2" xmlns="http://www.w3.org/2000/svg" viewBox="0 0 401.86 318.9">
  <defs>
    <style>
      .cls-1 {
        fill: none;
        stroke: #2e4d62;
        stroke-linecap: round;
        stroke-linejoin: round;
        stroke-width: 11.32px;
      }

      .cls-2 {
        fill: #2d4d65;
        stroke-width: 0px;
      }
    </style>
  </defs>
  <g id="Layer_1" data-name="Layer 1">
    <g>
      <g>
        <g>
          <path class="cls-1" d="M189.18,151.03l-111.37-60.95c-16.37-7.92-34.32-12.04-52.51-12.04H5.66v202.42h134.89"/>
          <path class="cls-1" d="M298.72,280.46h27.94c11.14,0,20.17-9.03,20.17-20.17v-50.48c0-5.21-1.61-10.28-4.61-14.54-6.18-8.77-19.81-22.63-47.98-32.32l-23.54,11.8-20.13-19.32-23.4,12.65-37.98-17.06H5.66"/>
          <circle class="cls-1" cx="220.15" cy="258" r="55.23" transform="translate(-79.39 98.92) rotate(-21.55)"/>
          <path class="cls-1" d="M346.83,220.83h-37.96c-8.85,0-16.41-6.37-17.91-15.09h0c-1.91-11.11,6.64-21.26,17.91-21.26h23.69"/>
          <circle class="cls-2" cx="220.15" cy="258" r="19.64" transform="translate(-81.84 412.38) rotate(-76.6)"/>
        </g>
        <line class="cls-1" x1="127.79" y1="247.75" x2="5.66" y2="247.75"/>
      </g>
      <polygon class="cls-1" points="273.36 5.66 230.53 58.55 238.04 108.62 267.92 71.72 381.45 163.68 396.2 145.47 282.66 53.52 302.38 29.17 273.36 5.66"/>
      <polyline class="cls-1" points="26.56 151.03 41.93 187.65 82.83 201.94 98.84 224.66"/>
      <polyline class="cls-1" points="82.83 201.94 105.34 187.85 140.83 195.88"/>
    </g>
  </g>
</svg>