<?xml version="1.0" encoding="UTF-8"?>
<svg id="Ebene_2" data-name="Ebene 2" xmlns="http://www.w3.org/2000/svg" viewBox="0 0 32.49 32.49">
  <defs>
    <style>
      .cls-1 {
        fill: #2c2f35;
        stroke-width: 0px;
      }
    </style>
  </defs>
  <g id="_Ńëîé_1" data-name="Ńëîé 1">
    <g>
      <g>
        <path class="cls-1" d="M31.88,32.49c-.16,0-.31-.06-.43-.18L12.45,13.31c-.24-.24-.24-.62,0-.86.24-.24.62-.24.86,0l19,19c.24.24.24.62,0,.86-.12.12-.27.18-.43.18Z"/>
        <path class="cls-1" d="M19.6,20.21c-.15,0-.31-.06-.43-.18L.18,1.04C-.06.8-.06.41.18.18.41-.06.8-.06,1.04.18l19,19c.24.24.24.62,0,.86-.12.12-.27.18-.43.18Z"/>
      </g>
      <g>
        <path class="cls-1" d="M.61,32.49c-.16,0-.31-.06-.43-.18-.24-.24-.24-.62,0-.86L19.18,12.45c.24-.24.62-.24.86,0,.24.24.24.62,0,.86L1.04,32.31c-.12.12-.27.18-.43.18Z"/>
        <path class="cls-1" d="M12.88,20.21c-.16,0-.31-.06-.43-.18-.24-.24-.24-.62,0-.86L31.45.18c.24-.24.62-.24.86,0,.24.24.24.62,0,.86L13.31,20.03c-.12.12-.27.18-.43.18Z"/>
      </g>
    </g>
  </g>
</svg>