<?xml version="1.0" encoding="UTF-8"?>
<svg id="Ebene_2" data-name="Ebene 2" xmlns="http://www.w3.org/2000/svg" viewBox="0 0 339.87 319.57">
  <defs>
    <style>
      .cls-1 {
        fill: none;
        stroke: #268692;
        stroke-linecap: round;
        stroke-linejoin: round;
        stroke-width: 11.32px;
      }
    </style>
  </defs>
  <g id="Layer_1" data-name="Layer 1">
    <g>
      <g>
        <g>
          <path class="cls-1" d="M252.91,214.23c-17.74,26.98-48.28,44.78-82.97,44.78s-63.08-16.58-81.05-41.97"/>
          <path class="cls-1" d="M86.77,105.63c17.71-27.14,48.34-45.07,83.16-45.07,32.17,0,60.77,15.31,78.9,39.05"/>
        </g>
        <g>
          <polyline class="cls-1" points="283.02 88.78 291.75 63.63 278.92 50.8 266.09 37.97 240.94 46.7 199.69 29.61 188.08 5.66 151.79 5.66 140.18 29.61 98.93 46.7 73.79 37.97 60.96 50.8 48.13 63.63 56.85 88.78"/>
          <polyline class="cls-1" points="56.85 230.79 48.13 255.94 60.96 268.76 73.79 281.59 98.93 272.87 140.18 289.96 151.79 313.91 188.08 313.91 199.69 289.96 240.94 272.87 266.09 281.59 278.92 268.76 291.75 255.94 283.02 230.79"/>
        </g>
      </g>
      <path class="cls-1" d="M292.16,179.06h42.05c-6.77,15.14-21.27,26.04-38.55,27.7-1.51.15-3.02.24-4.58.24-9.59,0-18.54-2.87-26.04-7.79-4.77-3.16-8.96-7.2-12.27-11.83-1.9-2.58-3.5-5.35-4.82-8.32H91.91c-1.31,2.92-2.92,5.69-4.77,8.27-8.57,11.93-22.58,19.66-38.36,19.66-1.56,0-3.07-.1-4.58-.24-17.28-1.66-31.78-12.56-38.55-27.7h42.05v-38.55H5.66c7.06-15.82,22.63-27.01,40.89-27.84.73-.1,1.46-.1,2.24-.1,9.59,0,18.54,2.87,26.04,7.79,4.48,2.97,8.37,6.67,11.58,10.9,2.19,2.82,4.04,5.94,5.5,9.25h156.05c1.46-3.31,3.31-6.42,5.55-9.3,8.62-11.34,22.24-18.64,37.58-18.64.78,0,1.51,0,2.24.1,18.25.83,33.83,12.02,40.89,27.84h-42.05v38.55Z"/>
    </g>
  </g>
</svg>