<?xml version="1.0" encoding="UTF-8"?>
<svg id="Ebene_2" data-name="Ebene 2" xmlns="http://www.w3.org/2000/svg" viewBox="0 0 256.4 315">
  <defs>
    <style>
      .cls-1 {
        fill: #268692;
        stroke-width: 0px;
      }
    </style>
  </defs>
  <g id="Layer_1" data-name="Layer 1">
    <g id="NewGroup27-0">
      <g>
        <path class="cls-1" d="M101.38,194.73c-.49.94-1.2,1.71-2.1,2.28-1.9,1.21-11.58,4.19-22.57,7.22,7.38-8.7,14.15-16.22,16.05-17.43.22-.14.47-.28.71-.39.81-.38,1.68-.56,2.53-.56,1.53,0,3.03.58,4.16,1.65.14.34.32.68.55.99.23.31.49.58.77.82.81,1.71.79,3.73-.1,5.43h0ZM197.17,67.69v131.06c0,2.25-.13,4.49-.38,6.66-.02.18-.03.36-.03.55v6.63c-2.62-.95-5.57-.85-8.17.42l-39.02-53.24c-1.96-2.67-5.11-4.26-8.42-4.26-1.82,0-3.61.48-5.16,1.38l-.08.05c-.39.2-.76.44-1.16.73l-29.58,21.68c-4.46-3.23-10.48-3.97-15.72-1.53-.63.3-1.23.63-1.8.99-5.27,3.36-22.56,24.43-27.73,30.8-1.29,1.59-1.41,3.82-.32,5.54.89,1.39,2.41,2.19,4,2.19.38,0,.77-.05,1.16-.14,7.96-2.01,34.35-8.82,39.62-12.18,2.28-1.45,4.14-3.48,5.4-5.87,1.99-3.78,2.3-8.18.98-12.14l29.6-21.69c.06-.03.11-.06.16-.09l.19-.11c.13-.08.28-.11.43-.11.15,0,.51.04.77.39l39.16,53.43c-1.64,1.6-3.51,3.55-5.18,5.48-4.09,4.7-8.18,10.08-4.99,14.43l3.97,5.42-4.64,3.72c-9.33,5.96-20.13,9.1-31.27,9.1h-71.28c-32.09,0-58.2-26.11-58.2-58.21V67.69c0-32.09,26.11-58.2,58.2-58.2h71.28c32.09,0,58.2,26.11,58.2,58.2h0ZM246.73,293.84c.19.26.2.53.17.71-.03.17-.11.42-.37.61l-13.88,10.17c-.26.19-.52.2-.7.17-.18-.03-.43-.11-.62-.37l-51.58-70.38c1.86-2.98,7.45-8.92,9.98-11.06.19-.1.37-.22.54-.34l2.35-1.72c.42-.31,1.01-.22,1.32.2l52.78,72.02h0ZM0,67.69v131.06c0,37.33,30.37,67.7,67.69,67.7h71.28c13.04,0,25.7-3.72,36.61-10.75.14-.09.27-.19.4-.29l4.5-3.62,43.2,58.94c1.65,2.25,4.07,3.72,6.83,4.14.54.08,1.07.12,1.61.12,2.2,0,4.34-.7,6.14-2.02l13.87-10.16c2.25-1.64,3.72-4.06,4.15-6.82.43-2.76-.25-5.52-1.9-7.77l-47.68-65.06-.79-1.08c.21-.54.34-1.13.34-1.75v-14.12c.27-2.44.41-4.96.41-7.47V67.69C206.66,30.37,176.29,0,138.97,0h-71.28C30.37,0,0,30.37,0,67.69h0Z"/>
        <path class="cls-1" d="M159.12,78.71v28.64c0,5.59-4.55,10.14-10.14,10.14h-41.1c-.13,0-.25.01-.38.02l30.64-29.45c1.89-1.82,1.95-4.82.13-6.71-1.82-1.89-4.82-1.95-6.71-.13l-36.53,35.11c-.36.35-.66.74-.88,1.16h-17.94l30.62-29.43c1.89-1.82,1.95-4.82.13-6.71-1.82-1.89-4.82-1.95-6.71-.13l-36.53,35.11c-.36.35-.66.74-.88,1.16h-5.14c-5.59,0-10.14-4.55-10.14-10.14v-28.64c0-5.59,4.55-10.14,10.14-10.14h91.29c5.59,0,10.14,4.55,10.14,10.14h0ZM38.05,78.71v28.64c0,10.83,8.81,19.63,19.63,19.63h49.17c.17,0,.34,0,.51-.03.17.02.34.03.51.03h41.1c10.83,0,19.63-8.81,19.63-19.63v-28.64c0-10.83-8.81-19.63-19.63-19.63H57.68c-10.83,0-19.63,8.81-19.63,19.63h0Z"/>
      </g>
    </g>
  </g>
</svg>