<?xml version="1.0" encoding="UTF-8"?>
<svg id="Ebene_2" data-name="Ebene 2" xmlns="http://www.w3.org/2000/svg" xmlns:xlink="http://www.w3.org/1999/xlink" viewBox="0 0 62.79 62.65">
  <defs>
    <style>
      .cls-1 {
        fill: #FFF;
        stroke-width: 0px;
      }
    </style>
    <linearGradient id="Dégradé_sans_nom_18" data-name="Dégradé sans nom 18" x1="11.46" y1="7.2" x2="54.12" y2="58.04" gradientUnits="userSpaceOnUse">
      <stop offset="0" stop-color="#4d4d4d"/>
      <stop offset="1" stop-color="#1a1a1a"/>
    </linearGradient>
  </defs>
  <g id="Calque_187_-_copie" data-name="Calque 187 - copie">
    <g id="Calque_4_-_copie" data-name="Calque 4 - copie">
      <path class="cls-1" d="m56.18,47.99c-.11,0-.21.06-.27.15-1.92,2.9-4.25,4.2-6.99,5.52-2.79,1.35-6.2,2.26-10.21,2.74-5.06.52-9.6.34-13.62-.54-4.02-.88-7.44-2.37-10.28-4.46-2.83-2.1-5-4.69-6.48-7.79-1.49-3.09-2.23-6.51-2.23-10.25,0-2.8.35-5.55,1.04-8.24.69-2.69,1.71-5.15,3.03-7.36,1.5-2.54,3.37-4.68,5.6-6.4,2.24-1.73,4.83-3.05,7.79-3.98,2.95-.92,6.2-1.38,9.74-1.38s6.59.48,9.33,1.43c2.75.96,5.06,2.28,6.92,3.98,1.87,1.69,3.3,3.69,4.28,6,.99,2.3,1.48,4.76,1.48,7.36,0,3.13-.69,6.01-2.07,8.65-1.38,2.64-3,4.72-4.85,6.26-1.86,1.53-3.37,2.3-4.55,2.3-.35,0-.65-.14-.9-.42-.25-.28-.37-.67-.37-1.17s.15-1.5.46-2.97l4.87-23.01c.04-.2-.11-.39-.32-.39h-7.94c-.15,0-.28.11-.32.25l-.6,2.67c-.06.28-.41.34-.58.11-1.83-2.51-4.56-3.76-8.18-3.76-3.41,0-6.47,1.06-9.17,3.17-2.7,2.11-4.79,4.82-6.26,8.12-1.47,3.3-2.2,6.66-2.2,10.07s.71,6.04,2.13,8.28c1.42,2.24,3.29,3.83,5.59,4.77,2.3.94,4.68,1.17,7.14.68,2.29-.46,4.34-1.51,6.14-3.17.18-.16.45-.09.53.14.36,1.05.96,1.83,1.81,2.35.98.6,2.35.9,4.1.9,3.04,0,5.88-.65,8.5-1.94,2.63-1.29,4.91-3.05,6.86-5.28,1.94-2.23,3.44-4.73,4.48-7.53,1.04-2.79,1.56-5.64,1.56-8.55,0-3.74-.65-7.15-1.94-10.25-1.29-3.1-3.17-5.77-5.62-8.03-2.45-2.26-5.4-3.99-8.85-5.2-3.44-1.21-7.23-1.81-11.35-1.81-5.04,0-9.65.84-13.83,2.51-4.18,1.67-7.72,3.99-10.62,6.96-2.9,2.96-5.12,6.46-6.66,10.47-1.54,4.02-2.31,8.34-2.31,12.97s.75,8.48,2.25,12.14c1.5,3.66,3.71,6.81,6.63,9.45,2.92,2.64,6.52,4.66,10.8,6.06,4.28,1.4,9.09,2.1,14.43,2.1,3.56,0,6.85-.33,9.87-.98,3.02-.65,5.75-1.6,8.18-2.85,2.43-1.25,4.56-2.79,6.37-4.61,1.72-1.73,3.13-3.08,4.24-5.77.09-.21-.07-.45-.3-.45h-6.29Zm-20.6-13.96c-.8,2.49-1.98,4.54-3.53,6.17-1.74,1.83-3.79,2.63-6.15,2.41-.4-.04-.8-.13-1.16-.28-2.65-1.1-3.97-3.69-3.97-7.76,0-2.54.41-5,1.24-7.38.83-2.38,2-4.31,3.54-5.8,1.53-1.49,3.25-2.23,5.16-2.23.96,0,1.81.18,2.56.54.75.36,1.39.89,1.92,1.58.53.7.93,1.5,1.21,2.43.27.92.41,1.96.41,3.11,0,2.32-.4,4.73-1.21,7.22Z"/>
    </g>
  </g>
</svg>