<?xml version="1.0" encoding="UTF-8"?>
<svg id="Ebene_2" data-name="Ebene 2" xmlns="http://www.w3.org/2000/svg" xmlns:xlink="http://www.w3.org/1999/xlink" viewBox="0 0 38.07 77.45">
  <defs>
    <style>
      .cls-1 {
        fill: url(#Dégradé_sans_nom_18-5);
      }

      .cls-1, .cls-2, .cls-3, .cls-4, .cls-5, .cls-6, .cls-7 {
        stroke-width: 0px;
      }

      .cls-2 {
        fill: url(#Dégradé_sans_nom_18-2);
      }

      .cls-3 {
        fill: url(#Eau_7-2);
      }

      .cls-4 {
        fill: url(#Dégradé_sans_nom_18-3);
      }

      .cls-5 {
        fill: url(#Dégradé_sans_nom_18-4);
      }

      .cls-6 {
        fill: url(#Dégradé_sans_nom_18);
      }

      .cls-7 {
        fill: url(#Eau_7);
      }
    </style>
    <linearGradient id="Dégradé_sans_nom_18" data-name="Dégradé sans nom 18" x1="24.73" y1="38.35" x2="32.4" y2="47.49" gradientUnits="userSpaceOnUse">
      <stop offset="0" stop-color="#4d4d4d"/>
      <stop offset="1" stop-color="#1a1a1a"/>
    </linearGradient>
    <linearGradient id="Dégradé_sans_nom_18-2" data-name="Dégradé sans nom 18" y1="45.35" x2="32.4" y2="54.49" xlink:href="#Dégradé_sans_nom_18"/>
    <linearGradient id="Dégradé_sans_nom_18-3" data-name="Dégradé sans nom 18" x1="24.78" y1="52.16" x2="32.47" y2="61.33" xlink:href="#Dégradé_sans_nom_18"/>
    <linearGradient id="Dégradé_sans_nom_18-4" data-name="Dégradé sans nom 18" x1="24.78" y1="31.16" x2="32.47" y2="40.33" xlink:href="#Dégradé_sans_nom_18"/>
    <linearGradient id="Dégradé_sans_nom_18-5" data-name="Dégradé sans nom 18" x1="9.42" y1="32.77" x2="27.19" y2="53.95" xlink:href="#Dégradé_sans_nom_18"/>
    <linearGradient id="Eau_7" data-name="Eau 7" x1="23.14" y1="62.15" x2="33.54" y2="74.54" gradientUnits="userSpaceOnUse">
      <stop offset="0" stop-color="#69afe0"/>
      <stop offset=".1" stop-color="#5facde"/>
      <stop offset=".26" stop-color="#46a6db"/>
      <stop offset=".46" stop-color="#1d9bd6"/>
      <stop offset=".58" stop-color="#0094d3"/>
      <stop offset="1" stop-color="#007fc3"/>
    </linearGradient>
    <linearGradient id="Eau_7-2" data-name="Eau 7" x1="18.4" y1="3.07" x2="38.68" y2="27.24" xlink:href="#Eau_7"/>
  </defs>
  <g id="Calque_187_-_copie" data-name="Calque 187 - copie">
    <g id="Calque_4_-_copie" data-name="Calque 4 - copie">
      <g>
        <rect class="cls-6" x="21.07" y="39.92" width="15" height="6" rx="2.82" ry="2.82"/>
        <rect class="cls-2" x="21.07" y="46.92" width="15" height="6" rx="2.82" ry="2.82"/>
        <path class="cls-4" d="m33.3,53.92h-9.36c-1.56,0-2.87.9-2.87,2.46v.36c0,1.56,1.31,3.18,2.87,3.18h9.36c1.56,0,2.77-1.62,2.77-3.18v-.36c0-1.56-1.21-2.46-2.77-2.46Z"/>
        <path class="cls-5" d="m33.3,32.92h-9.36c-1.56,0-2.87.9-2.87,2.46v.36c0,1.56,1.31,3.18,2.87,3.18h9.36c1.56,0,2.77-1.62,2.77-3.18v-.36c0-1.56-1.21-2.46-2.77-2.46Z"/>
        <path class="cls-1" d="m27.12,22.56c-.56-1.62-3-1.83-4.5-.83-.48.32-2.21,1.84-4.5,3.98l-3,2.85c-4.59,4.43-10,9.99-12.5,13.5-4.5,6.33-1.83,11.5-1.83,11.5,5.56,8.97,11.69,8.46,14.33,7.69l4.28-.76-.03-24.51c.03-1.53.3-2.13,1.42-3.25,2.67-2.67,7.15-7.8,6.33-10.17Z"/>
        <path class="cls-7" d="m23.42,61.92l-.03,10.92c0,2.69,2.15,4.61,4.84,4.61,2.69,0,4.85-2.02,4.85-4.7v-10.83h-9.67Zm4.82,12.31c-1.45,0-2.63-1.18-2.63-2.63,0-1.45,1.18-2.63,2.63-2.63,1.45,0,2.63,1.17,2.63,2.63,0,1.45-1.17,2.62-2.63,2.63Z"/>
        <path class="cls-3" d="m34.07,0v7.49l-6,4.02-6-4.02V0c-2,1.54-4,3.94-4,6.66v2.44c0,3.19,1.92,6.2,4.82,7.67v2.62c.57-.18,1.18-.29,1.79-.29,2.07,0,3.73,1.07,4.33,2.79.16.47.22.99.18,1.55-.1.43-.92,3.84-2.9,5.74-2.12,2.04-2.33,2.72-2.33,2.72h9.17l-.02-8.76v-6.52c2.99-1.47,4.97-4.34,4.97-7.53v-2.44c0-2.72-2-5.12-4-6.66Z"/>
      </g>
    </g>
  </g>
</svg>