<?xml version="1.0" encoding="UTF-8"?>
<svg id="Ebene_1" data-name="Ebene 1" xmlns="http://www.w3.org/2000/svg" viewBox="0 0 975.96 915.47">
  <defs>
    <style>
      .cls-1 {
        font-family: AllumiStd-ExtraBold, 'Allumi Std';
        font-size: 227.52px;
        font-weight: 700;
      }

      .cls-1, .cls-2, .cls-3 {
        fill: #FFFFFF;
      }

      .cls-4 {
        letter-spacing: -.01em;
      }

      .cls-5 {
        letter-spacing: .02em;
      }

      .cls-2 {
        font-family: BriosoPro-LightIt, 'Brioso Pro';
        font-size: 222.82px;
        font-style: italic;
        font-weight: 300;
      }

      .cls-6 {
        letter-spacing: 0em;
      }

      .cls-7 {
        letter-spacing: -.02em;
      }

      .cls-8 {
        letter-spacing: 0em;
      }

      .cls-9 {
        letter-spacing: 0em;
      }

      .cls-10 {
        letter-spacing: 0em;
      }

      .cls-11 {
        letter-spacing: -.08em;
      }
    </style>
  </defs>
  <path class="cls-3" d="m364.75,337.22c-65.41-28.54-54.41-58.81-40.37-117.35,10.58-44.11,23.53-87.65,34.29-131.67-62.9,46.72-111.23,110.82-157.86,173.15-15.08,20.19-28.56,41.54-41.82,62.94-1.81,3.1-3.74,3.29-6.42,2.79-22.76-4.26-42.51-16.16-63.24-25.27-22.3-10.63-45.63-19.34-66.93-31.84-1.37-.8-2.28-.89-1.42-2.86,3.21-7.34,15.89-25.46,18.72-29.69,6.65-9.97,19.95-28.89,30.5-42.89,40.85-54.18,84.28-107.47,136.53-151.06C234.26,20.09,259.79,3.75,297.21.48c39.73-3.47,91.06,12.56,132.59,26.4,19.56,7.77,43.08,10.79,56.82,28.23,34.41,56.3-31.84,148.69-40.89,207.46,23.74-22.52,45.93-46.55,69.42-69.87,24.09-23.92,48.71-47.89,76.76-67.15,20.04-14.62,63.86.77,86.82,5.57,18.47,4.82,36.46,11.31,54.66,17.03,10.16,4.01,17.32,5.24,25.64,13.84,8.24,8.52,12.97,21.87,13.99,33.13.38,4.24.42,8.57.31,12.96-.31,12.15-2.68,24.92-5.12,38.33.04-.24.39-.3.58-.45,26.12-20.12,51.89-43.57,71.75-70.07,3.08-4.22,5.54-8.94,7.98-13.59,2.25-4.3,2.41-4.42,7-3.82,25.09,2.77,48.25,7.1,73.25,10.63,20.76,2.93,31.47,3.94,36.39,5.19,4.47,1.14,5.68,2.68,9.46,6.16.5.46.8.65,1.07,1.18s.41.8.03,1.88c-2.58,7.26-8.79,19.41-11.91,24.18-21.41,32.75-45.63,63.21-74.06,90.04-21.65,18.52-51.82,40.7-79.8,41.96-23.04,1.04-41.13-4.56-63.68-8.21-24.29-6.48-54.68-11.42-72.96-19.54-15.44-6.86-30.17-28.53-30.92-46.68-.31-7.41.69-14.06,1.28-16.51.53-2.17,1.22-4.3,1.82-5.93.98-2.63,1.73-4.07,3.09-5.57-.92,1.01-4.21,4.47-5.68,6.31-4.98,6.25-11.43,12.76-17.6,20.01-10.86,12.77-22.4,27.03-34.59,40.49-38.15,42.12-86.35,89.49-147.31,64.23m40.63-5.99c-109.8-5.79-4.55-181.96,5.57-239.13,14.46-60.87-11.66-97.05-75.94-79.74-76.32,25.13-135.28,94.6-185.32,154.73-31.9,38.62-57.39,74.21-87.24,122.23-.32.51-.37.99-.1,1.09.85.3,6.5,1.94,11.82,2.95.61.12,1.71.26,2.47-.11.83-.4,1.31-1.33,1.49-1.64,9.75-17.34,21.54-34.01,32.57-50.58,56.07-76.94,115.28-156.62,197.62-207.09,27.19-16.67,88.56-30.69,92.38,13.41,3.58,41.4-12.47,72.58-30.46,119.22-14.25,36.93-37.85,106.91-21.99,144.1,14.62,32.79,47.04,36.4,77.34,26.72,19.38-6.19,40.39-21.94,56.25-36.88,38.47-36.24,80.51-93.71,111.29-120.95,22.24-19.68,76.82-78.89,85.51-17.24.98,6.95.08,17.96-1.76,30.88-4.66,32.79-18.25,75.67,3.22,96.15,20.72,21.86,58.24,21.27,83.84,7.8,45.6-24.56,79.33-63.77,108.92-105.46,7.86-10.8,15.17-21.93,20.4-34.3,1.35-3.2,2.52-5.49,1.91-6.19-.74-.84-1.9-1.84-4.04-3.43-4.59-3.42-4.86-2.35-6.66,2.16-23.5,50.67-129.32,185.23-190.71,130.6-32.44-31.2,23.34-103.68-13.87-147.86-30.62-34.02-83.83,29.96-105.57,51.32-22.43,22.73-39.21,44.49-60.76,69.25-27.31,31.38-61.87,78.23-108.17,78Z"/>
  <text class="cls-1" transform="translate(0 572.38) scale(.77 1)"><tspan x="0" y="0">M</tspan><tspan class="cls-7" x="222.52" y="0">E</tspan><tspan class="cls-11" x="365.4" y="0">T</tspan><tspan class="cls-9" x="493.5" y="0">ALL</tspan></text>
  <text class="cls-2" transform="translate(315.92 767.06)"><tspan class="cls-6" x="0" y="0">Cla</tspan><tspan class="cls-8" x="288.54" y="0">s</tspan><tspan class="cls-4" x="352.05" y="0">s</tspan><tspan class="cls-6" x="411.32" y="0">i</tspan><tspan class="cls-5" x="467.02" y="0">c</tspan><tspan class="cls-10" x="544.79" y="0">s</tspan></text>
</svg>