<?xml version="1.0" encoding="UTF-8"?>
<svg id="Ebene_2" data-name="Ebene 2" xmlns="http://www.w3.org/2000/svg" xmlns:xlink="http://www.w3.org/1999/xlink" viewBox="0 0 76.21 76.21">
  <defs>
    <style>
      .cls-1 {
        fill: #FFF;
        stroke-width: 0px;
      }
    </style>
    <linearGradient id="Eau_7" data-name="Eau 7" x1="13.62" y1="8.93" x2="62.59" y2="67.28" gradientUnits="userSpaceOnUse">
      <stop offset="0" stop-color="#69afe0"/>
      <stop offset=".1" stop-color="#5facde"/>
      <stop offset=".26" stop-color="#46a6db"/>
      <stop offset=".46" stop-color="#1d9bd6"/>
      <stop offset=".58" stop-color="#0094d3"/>
      <stop offset="1" stop-color="#007fc3"/>
    </linearGradient>
  </defs>
  <g id="Calque_187_-_copie" data-name="Calque 187 - copie">
    <g id="Calque_4_-_copie" data-name="Calque 4 - copie">
      <g id="Calque_9_-_copie" data-name="Calque 9 - copie">
        <path class="cls-1" d="m38.11,0C17.09,0,0,17.09,0,38.11s17.09,38.11,38.11,38.11,38.11-17.09,38.11-38.11S59.12,0,38.11,0Zm-9.82,4.4c-4.04,3.02-7.46,7.84-9.83,13.82h-9.28c4.53-6.58,11.25-11.54,19.11-13.82ZM7.9,20.22h9.81c-1.73,5.02-2.75,10.73-2.86,16.81H3.03c.18-6.13,1.93-11.86,4.87-16.81Zm-4.87,18.81h11.83c.09,6.07,1.1,11.79,2.81,16.81H7.82c-2.91-4.96-4.63-10.69-4.79-16.81Zm6.05,18.81h9.33c2.38,6.04,5.81,10.92,9.89,13.96-7.92-2.3-14.68-7.31-19.21-13.96Zm28.03,15.34c-.24,0-.48,0-.72-.02-6.6-.88-12.35-6.74-15.88-15.32h16.6v15.34Zm0-17.34h-17.36c-1.76-4.96-2.8-10.69-2.9-16.81h20.25v16.81Zm0-18.81h-20.25c.11-6.12,1.17-11.86,2.95-16.81h17.31v16.81Zm0-18.81h-16.54c3.53-8.5,9.26-14.31,15.82-15.18.24-.01.48-.01.72-.02v15.2Zm36.08,18.81h-11.83c-.11-6.08-1.13-11.8-2.86-16.81h9.81c2.94,4.95,4.69,10.68,4.87,16.81Zm-6.15-18.81h-9.28c-2.38-5.98-5.79-10.8-9.83-13.82,7.86,2.29,14.58,7.24,19.11,13.82ZM39.11,3.03c.24,0,.48,0,.72.02,6.56.87,12.29,6.68,15.82,15.18h-16.54V3.03Zm0,17.2h17.31c1.78,4.96,2.83,10.69,2.95,16.81h-20.25v-16.81Zm0,18.81h20.25c-.1,6.12-1.14,11.85-2.9,16.81h-17.36v-16.81Zm0,34.15v-15.34h16.6c-3.53,8.58-9.28,14.44-15.88,15.32-.24.01-.48.01-.72.02Zm8.82-1.38c4.08-3.04,7.51-7.92,9.89-13.96h9.32c-4.53,6.65-11.3,11.66-19.21,13.96Zm10.63-15.96c1.71-5.02,2.72-10.74,2.81-16.81h11.83c-.16,6.12-1.88,11.86-4.79,16.81h-9.84Z"/>
      </g>
    </g>
  </g>
</svg>